<svg xmlns="http://www.w3.org/2000/svg" width="500" height="500" viewBox="0 0 500 500" version="1.1"><path d="M 274.320 236 C 274.320 239.575, 274.502 241.037, 274.723 239.250 C 274.945 237.463, 274.945 234.537, 274.723 232.750 C 274.502 230.963, 274.320 232.425, 274.320 236 M 287.328 236.500 C 287.333 240.350, 287.513 241.802, 287.730 239.728 C 287.946 237.653, 287.943 234.503, 287.722 232.728 C 287.501 230.952, 287.324 232.650, 287.328 236.500 M 196.328 274.500 C 196.333 278.350, 196.513 279.802, 196.730 277.728 C 196.946 275.653, 196.943 272.503, 196.722 270.728 C 196.501 268.952, 196.324 270.650, 196.328 274.500 M 262 313 C 262 313.628, 267.667 313.953, 277.250 313.875 C 288.291 313.784, 291.258 313.529, 288 312.949 C 281.359 311.767, 262 311.805, 262 313" stroke="none" fill="#bebfbf" fill-rule="evenodd"/><path d="M 256.250 226.716 C 257.762 226.945, 260.238 226.945, 261.750 226.716 C 263.262 226.487, 262.025 226.300, 259 226.300 C 255.975 226.300, 254.738 226.487, 256.250 226.716 M 230 273.833 C 230 274.475, 228.762 275.061, 227.250 275.136 C 224.726 275.261, 224.694 275.309, 226.865 275.721 C 229.298 276.182, 231.900 274.567, 230.683 273.350 C 230.308 272.974, 230 273.192, 230 273.833 M 290.728 312.722 C 292.503 312.943, 295.653 312.946, 297.728 312.730 C 299.802 312.513, 298.350 312.333, 294.500 312.328 C 290.650 312.324, 288.952 312.501, 290.728 312.722 M 252.272 351 C 252.272 353.475, 252.467 354.488, 252.706 353.250 C 252.944 352.012, 252.944 349.988, 252.706 348.750 C 252.467 347.512, 252.272 348.525, 252.272 351" stroke="none" fill="#7a7b7b" fill-rule="evenodd"/><path d="M 252.320 236 C 252.320 239.575, 252.502 241.037, 252.723 239.250 C 252.945 237.463, 252.945 234.537, 252.723 232.750 C 252.502 230.963, 252.320 232.425, 252.320 236 M 134.250 240.689 C 135.213 240.941, 136.787 240.941, 137.750 240.689 C 138.713 240.438, 137.925 240.232, 136 240.232 C 134.075 240.232, 133.287 240.438, 134.250 240.689 M 337.250 240.689 C 338.212 240.941, 339.788 240.941, 340.750 240.689 C 341.712 240.438, 340.925 240.232, 339 240.232 C 337.075 240.232, 336.288 240.438, 337.250 240.689 M 175.148 278.500 C 175.101 279.600, 175.724 281.374, 176.532 282.441 C 177.339 283.509, 178 283.936, 178 283.391 C 178 282.846, 177.594 281.972, 177.097 281.450 C 176.600 280.928, 175.978 279.600, 175.713 278.500 C 175.232 276.500, 175.232 276.500, 175.148 278.500 M 221.409 348.377 C 221.118 349.134, 221.028 351.947, 221.209 354.627 C 221.538 359.500, 221.538 359.500, 222.019 353.248 C 222.505 346.932, 222.372 345.868, 221.409 348.377 M 245.272 351 C 245.272 353.475, 245.467 354.488, 245.706 353.250 C 245.944 352.012, 245.944 349.988, 245.706 348.750 C 245.467 347.512, 245.272 348.525, 245.272 351 M 382.437 383.250 C 379.500 386.500, 379.500 386.500, 382.750 383.563 C 384.538 381.948, 386 380.485, 386 380.313 C 386 379.540, 385.175 380.221, 382.437 383.250" stroke="none" fill="#dedede" fill-rule="evenodd"/><path d="M 304.310 353.500 C 304.315 356.800, 304.502 358.029, 304.725 356.232 C 304.947 354.435, 304.943 351.735, 304.715 350.232 C 304.486 348.729, 304.304 350.200, 304.310 353.500" stroke="none" fill="#1c1c1d" fill-rule="evenodd"/><path d="M 196.320 236 C 196.320 239.575, 196.502 241.037, 196.723 239.250 C 196.945 237.463, 196.945 234.537, 196.723 232.750 C 196.502 230.963, 196.320 232.425, 196.320 236" stroke="none" fill="#616060" fill-rule="evenodd"/><path d="M 234.320 236 C 234.320 239.575, 234.502 241.037, 234.723 239.250 C 234.945 237.463, 234.945 234.537, 234.723 232.750 C 234.502 230.963, 234.320 232.425, 234.320 236 M 259.320 353 C 259.320 356.575, 259.502 358.038, 259.723 356.250 C 259.945 354.462, 259.945 351.538, 259.723 349.750 C 259.502 347.962, 259.320 349.425, 259.320 353 M 286.320 353 C 286.320 356.575, 286.502 358.038, 286.723 356.250 C 286.945 354.462, 286.945 351.538, 286.723 349.750 C 286.502 347.962, 286.320 349.425, 286.320 353 M 314.320 353 C 314.320 356.575, 314.502 358.038, 314.723 356.250 C 314.945 354.462, 314.945 351.538, 314.723 349.750 C 314.502 347.962, 314.320 349.425, 314.320 353" stroke="none" fill="#595858" fill-rule="evenodd"/><path d="" stroke="none" fill="#6f6f6e" fill-rule="evenodd"/><path d="" stroke="none" fill="#6b6b6a" fill-rule="evenodd"/><path d="M 212.320 274 C 212.320 277.575, 212.502 279.038, 212.723 277.250 C 212.945 275.462, 212.945 272.538, 212.723 270.750 C 212.502 268.962, 212.320 270.425, 212.320 274 M 288.252 355.500 C 288.263 357.700, 288.468 358.482, 288.707 357.238 C 288.946 355.994, 288.937 354.194, 288.687 353.238 C 288.437 352.282, 288.241 353.300, 288.252 355.500" stroke="none" fill="#242425" fill-rule="evenodd"/><path d="M 216.252 164.500 C 216.263 166.700, 216.468 167.482, 216.707 166.238 C 216.946 164.994, 216.937 163.194, 216.687 162.238 C 216.437 161.282, 216.241 162.300, 216.252 164.500" stroke="none" fill="#343534" fill-rule="evenodd"/><path d="" stroke="none" fill="#676766" fill-rule="evenodd"/><path d="" stroke="none" fill="#1c1c1c" fill-rule="evenodd"/><path d="M 170.987 235.796 C 171.475 242.500, 171.475 242.500, 171.792 236.604 C 171.966 233.362, 171.747 230.345, 171.304 229.900 C 170.862 229.455, 170.719 232.108, 170.987 235.796" stroke="none" fill="#636263" fill-rule="evenodd"/><path d="M 220.320 274 C 220.320 277.575, 220.502 279.038, 220.723 277.250 C 220.945 275.462, 220.945 272.538, 220.723 270.750 C 220.502 268.962, 220.320 270.425, 220.320 274 M 306.310 353.500 C 306.315 356.800, 306.502 358.029, 306.725 356.232 C 306.947 354.435, 306.943 351.735, 306.715 350.232 C 306.486 348.729, 306.304 350.200, 306.310 353.500" stroke="none" fill="#767677" fill-rule="evenodd"/><path d="" stroke="none" fill="#454544" fill-rule="evenodd"/><path d="" stroke="none" fill="#4d4d4d" fill-rule="evenodd"/><path d="M 254.252 350.500 C 254.263 352.700, 254.468 353.482, 254.707 352.238 C 254.946 350.994, 254.937 349.194, 254.687 348.238 C 254.437 347.282, 254.241 348.300, 254.252 350.500" stroke="none" fill="#1a1b1a" fill-rule="evenodd"/><path d="M 50.232 243 C 50.232 244.925, 50.438 245.713, 50.689 244.750 C 50.941 243.787, 50.941 242.213, 50.689 241.250 C 50.438 240.287, 50.232 241.075, 50.232 243" stroke="none" fill="#242525" fill-rule="evenodd"/><path d="M 270.320 236 C 270.320 239.575, 270.502 241.037, 270.723 239.250 C 270.945 237.463, 270.945 234.537, 270.723 232.750 C 270.502 230.963, 270.320 232.425, 270.320 236" stroke="none" fill="#929393" fill-rule="evenodd"/><path d="M 151.328 236.500 C 151.333 240.350, 151.513 241.802, 151.730 239.728 C 151.946 237.653, 151.943 234.503, 151.722 232.728 C 151.501 230.952, 151.324 232.650, 151.328 236.500 M 291.328 236.500 C 291.333 240.350, 291.513 241.802, 291.730 239.728 C 291.946 237.653, 291.943 234.503, 291.722 232.728 C 291.501 230.952, 291.324 232.650, 291.328 236.500 M 200.384 276.442 C 200.080 277.234, 200.042 278.697, 200.299 279.692 C 200.613 280.902, 200.806 280.612, 200.884 278.813 C 200.981 276.563, 201.527 276.061, 204.250 275.723 C 207.500 275.320, 207.500 275.320, 204.219 275.160 C 202.166 275.060, 200.730 275.540, 200.384 276.442 M 322 280.441 C 322 281.784, 322.369 283.110, 322.819 283.388 C 323.270 283.667, 323.443 282.568, 323.206 280.947 C 322.681 277.373, 322 277.087, 322 280.441 M 296.320 353 C 296.320 356.575, 296.502 358.038, 296.723 356.250 C 296.945 354.462, 296.945 351.538, 296.723 349.750 C 296.502 347.962, 296.320 349.425, 296.320 353" stroke="none" fill="#a7a7a6" fill-rule="evenodd"/><path d="" stroke="none" fill="#4d4c4d" fill-rule="evenodd"/><path d="M 282.232 243 C 282.232 244.925, 282.438 245.713, 282.689 244.750 C 282.941 243.787, 282.941 242.213, 282.689 241.250 C 282.438 240.287, 282.232 241.075, 282.232 243 M 218.250 312.728 C 220.313 312.944, 223.688 312.944, 225.750 312.728 C 227.813 312.513, 226.125 312.336, 222 312.336 C 217.875 312.336, 216.188 312.513, 218.250 312.728 M 217.250 314.728 C 219.313 314.944, 222.688 314.944, 224.750 314.728 C 226.813 314.513, 225.125 314.336, 221 314.336 C 216.875 314.336, 215.188 314.513, 217.250 314.728" stroke="none" fill="#404041" fill-rule="evenodd"/><path d="M 208.320 236 C 208.320 239.575, 208.502 241.037, 208.723 239.250 C 208.945 237.463, 208.945 234.537, 208.723 232.750 C 208.502 230.963, 208.320 232.425, 208.320 236 M 319.328 236.500 C 319.333 240.350, 319.513 241.802, 319.730 239.728 C 319.946 237.653, 319.943 234.503, 319.722 232.728 C 319.501 230.952, 319.324 232.650, 319.328 236.500 M 226.762 264.707 C 228.006 264.946, 229.806 264.937, 230.762 264.687 C 231.718 264.437, 230.700 264.241, 228.500 264.252 C 226.300 264.263, 225.518 264.468, 226.762 264.707 M 243.320 274 C 243.320 277.575, 243.502 279.038, 243.723 277.250 C 243.945 275.462, 243.945 272.538, 243.723 270.750 C 243.502 268.962, 243.320 270.425, 243.320 274 M 279.328 274.500 C 279.333 278.350, 279.513 279.802, 279.730 277.728 C 279.946 275.653, 279.943 272.503, 279.722 270.728 C 279.501 268.952, 279.324 270.650, 279.328 274.500" stroke="none" fill="#929392" fill-rule="evenodd"/><path d="M 202.250 272.689 C 203.213 272.941, 204.787 272.941, 205.750 272.689 C 206.713 272.438, 205.925 272.232, 204 272.232 C 202.075 272.232, 201.287 272.438, 202.250 272.689 M 195.500 347 C 195.840 347.550, 197.216 348, 198.559 348 C 199.902 348, 201 347.550, 201 347 C 201 346.450, 199.623 346, 197.941 346 C 196.156 346, 195.139 346.417, 195.500 347 M 218 347.108 C 218 347.759, 218.929 347.983, 220.250 347.650 C 222.394 347.110, 222.496 347.352, 222.409 352.792 C 222.317 358.500, 222.317 358.500, 222.709 353.250 C 222.987 349.510, 223.517 348, 224.550 348 C 225.347 348, 226 347.550, 226 347 C 226 346.450, 224.200 346, 222 346 C 219.739 346, 218 346.482, 218 347.108 M 301 346.910 C 301 347.410, 303.025 347.789, 305.500 347.751 C 307.975 347.714, 310 347.305, 310 346.842 C 310 346.379, 307.975 346, 305.500 346 C 303.025 346, 301 346.409, 301 346.910 M 316 347 C 317.965 348.270, 321 348.270, 321 347 C 321 346.450, 319.538 346.007, 317.750 346.015 C 315.284 346.027, 314.862 346.264, 316 347 M 244.252 350.500 C 244.263 352.700, 244.468 353.482, 244.707 352.238 C 244.946 350.994, 244.937 349.194, 244.687 348.238 C 244.437 347.282, 244.241 348.300, 244.252 350.500" stroke="none" fill="#b5b5b5" fill-rule="evenodd"/><path d="M 0 250.002 C 0 500.004, 0 500.004, 250.250 499.752 C 500.500 499.500, 500.500 499.500, 500.752 249.750 C 501.004 0, 501.004 0, 250.502 0 C 0 0, 0 0, 0 250.002 M 0.492 250.500 C 0.492 388, 0.608 444.101, 0.750 375.170 C 0.892 306.238, 0.892 193.738, 0.750 125.170 C 0.608 56.601, 0.492 113, 0.492 250.500 M 221.500 35.565 C 205.467 37.743, 196.390 39.820, 182 44.601 C 150.209 55.164, 122.133 72.272, 98.698 95.362 C 64.105 129.447, 42.566 171.844, 35.509 219.743 C 33.754 231.656, 33.485 262.285, 35.023 275.026 C 42.724 338.810, 77.099 394.703, 130.732 430.645 C 191.933 471.659, 275.218 477.587, 342.294 445.703 C 363.607 435.573, 382.188 422.651, 399.359 406.018 C 412.741 393.057, 420.893 383.380, 430.342 369.237 C 480.838 293.657, 477.564 192.996, 422.206 119.119 C 414.505 108.842, 395.462 89.339, 385.020 81.034 C 353.769 56.181, 316.290 40.281, 277.701 35.503 C 262.891 33.670, 235.225 33.700, 221.500 35.565 M 231 52.130 C 207.076 54.562, 184.693 61.034, 162.500 71.937 C 141.263 82.370, 128.953 91.084, 111.665 107.921 C 93.813 125.308, 81.628 142.167, 71.030 164.146 C 52.910 201.721, 47.286 240.799, 54.069 282 C 65.732 352.844, 114.913 412.118, 182.500 436.788 C 204.261 444.731, 234.200 449.632, 255 448.656 C 321.674 445.529, 378.525 413.931, 415.095 359.673 C 466.491 283.419, 457.480 180.400, 393.536 113.209 C 351.380 68.911, 290.601 46.071, 231 52.130 M 222.189 63.572 C 170.872 71.048, 122.375 101.792, 93.739 145 C 77.336 169.751, 67.614 195.089, 63.429 224 C 60.961 241.049, 61.879 271.080, 65.372 287.533 C 81.283 362.476, 137.924 418.852, 213.241 434.708 C 225.590 437.309, 228.112 437.500, 250 437.500 C 271.888 437.500, 274.410 437.309, 286.759 434.708 C 366.550 417.910, 425.363 355.329, 436.569 275.301 C 438.988 258.027, 438.081 228.949, 434.608 212.467 C 418.155 134.369, 354.895 74.599, 276.970 63.525 C 263.987 61.679, 235.005 61.704, 222.189 63.572 M 272.567 144.926 C 271.609 145.985, 271.037 147.672, 271.296 148.676 C 271.733 150.363, 271.777 150.356, 271.884 148.579 C 271.948 147.522, 272.745 145.835, 273.655 144.829 C 274.565 143.823, 275.085 143, 274.810 143 C 274.535 143, 273.526 143.867, 272.567 144.926 M 204.619 161.834 C 205.104 162.217, 206.822 163.648, 208.438 165.015 C 211.376 167.500, 211.376 167.500, 209.138 164.551 C 207.907 162.929, 206.188 161.498, 205.319 161.371 C 204.450 161.243, 204.135 161.452, 204.619 161.834 M 274.116 167.750 C 274.027 169.482, 274.518 169.973, 276.250 169.884 C 277.844 169.802, 278.008 169.638, 276.811 169.323 C 275.883 169.077, 274.923 168.117, 274.677 167.189 C 274.362 165.992, 274.198 166.156, 274.116 167.750 M 294.286 180.500 C 294.294 183.250, 294.488 184.256, 294.718 182.736 C 294.947 181.216, 294.941 178.966, 294.704 177.736 C 294.467 176.506, 294.279 177.750, 294.286 180.500 M 249.250 198.689 C 250.213 198.941, 251.787 198.941, 252.750 198.689 C 253.713 198.438, 252.925 198.232, 251 198.232 C 249.075 198.232, 248.287 198.438, 249.250 198.689 M 131.501 234.750 C 129.979 239.012, 128.119 243, 127.367 243.610 C 125.135 245.423, 125.770 246, 130 246 C 132.200 246, 134 245.550, 134 245 C 134 244.450, 133.550 244, 133 244 C 132.450 244, 132 243.100, 132 242 C 132 240.378, 132.667 240, 135.531 240 C 139.034 240, 141.829 242.890, 139.180 243.773 C 136.545 244.652, 138.253 246, 142 246 C 144.200 246, 146 245.550, 146 245 C 146 244.450, 145.582 244, 145.072 244 C 144.561 244, 143.197 241.412, 142.040 238.250 C 138.237 227.852, 137.780 227, 136.013 227 C 134.741 227, 133.518 229.102, 131.501 234.750 M 150 228 C 150 228.550, 150.450 229, 151 229 C 151.571 229, 152 231.980, 152 235.941 C 152 239.759, 151.550 243.160, 151 243.500 C 148.970 244.755, 150.093 246, 153.250 245.994 C 162.461 245.979, 167.703 241.607, 163.038 237.830 C 161.013 236.190, 160.959 235.898, 162.411 234.446 C 164.572 232.285, 164.411 229.290, 162.066 228.035 C 159.588 226.709, 150 226.681, 150 228 M 170 228 C 170 228.550, 170.450 229, 171 229 C 171.578 229, 172 232.167, 172 236.500 C 172 240.833, 171.578 244, 171 244 C 170.450 244, 170 244.450, 170 245 C 170 245.550, 171.575 246, 173.500 246 C 176.870 246, 178.083 244.787, 176 243.500 C 175.450 243.160, 175 241.784, 175 240.441 C 175 236.385, 178.403 237.349, 180.500 242 C 181.861 245.019, 182.880 246, 184.652 246 C 185.943 246, 187 245.550, 187 245 C 187 244.450, 186.543 244, 185.984 244 C 185.425 244, 184.233 242.460, 183.335 240.577 C 181.823 237.406, 181.824 237.033, 183.352 235.506 C 187.464 231.393, 183.409 227, 175.500 227 C 172.475 227, 170 227.450, 170 228 M 190 227.893 C 190 228.384, 190.675 229.045, 191.500 229.362 C 192.622 229.792, 193 231.589, 193 236.500 C 193 241.411, 192.622 243.208, 191.500 243.638 C 188.661 244.728, 190.007 246, 194 246 C 196.200 246, 198 245.550, 198 245 C 198 244.450, 197.550 244, 197 244 C 196.422 244, 196 240.833, 196 236.500 C 196 232.167, 196.422 229, 197 229 C 197.550 229, 198 228.550, 198 228 C 198 227.450, 196.200 227, 194 227 C 191.800 227, 190 227.402, 190 227.893 M 203 228 C 203 228.550, 203.450 229, 204 229 C 204.571 229, 205 231.980, 205 235.941 C 205 239.759, 204.550 243.160, 204 243.500 C 201.529 245.027, 203.475 246, 209 246 C 215 246, 215 246, 214.968 242.750 C 214.940 239.834, 214.800 239.680, 213.608 241.250 C 212.877 242.213, 211.317 243, 210.140 243 C 208.157 243, 208 242.486, 208 236 C 208 232, 208.429 229, 209 229 C 209.550 229, 210 228.550, 210 228 C 210 227.450, 208.425 227, 206.500 227 C 204.575 227, 203 227.450, 203 228 M 228 228 C 228 228.550, 228.450 229, 229 229 C 229.578 229, 230 232.167, 230 236.500 C 230 240.833, 229.578 244, 229 244 C 228.450 244, 228 244.512, 228 245.139 C 228 245.929, 229.908 246.105, 234.239 245.712 C 241.921 245.015, 245 242.208, 245 235.899 C 245 229.667, 241.716 227, 234.045 227 C 230.682 227, 228 227.444, 228 228 M 250 228 C 250 228.550, 250.675 229, 251.500 229 C 252.691 229, 253 230.448, 253 236.031 C 253 241.359, 252.637 243.202, 251.500 243.638 C 248.045 244.964, 250.457 246, 257 246 C 263.800 246, 264 245.929, 264 243.500 C 264 242.125, 263.550 241, 263 241 C 262.450 241, 262 241.450, 262 242 C 262 242.550, 260.650 243, 259 243 C 256.333 243, 256 242.667, 256 240 C 256 237.467, 256.389 237, 258.500 237 C 259.875 237, 261 236.550, 261 236 C 261 235.450, 259.875 235, 258.500 235 C 256.389 235, 256 234.533, 256 232 C 256 229.486, 256.395 229, 258.441 229 C 259.784 229, 261.160 229.450, 261.500 230 C 262.545 231.691, 264 231.109, 264 229 C 264 227.190, 263.333 227, 257 227 C 253 227, 250 227.429, 250 228 M 269 228 C 269 228.550, 269.450 229, 270 229 C 270.571 229, 271 231.980, 271 235.941 C 271 239.759, 270.550 243.160, 270 243.500 C 267.474 245.061, 269.539 246, 275.500 246 C 282 246, 282 246, 282 243 C 282 241.350, 281.550 240, 281 240 C 280.450 240, 280 240.675, 280 241.500 C 280 242.500, 279 243, 277 243 C 274 243, 274 243, 274 236 C 274 232, 274.429 229, 275 229 C 275.550 229, 276 228.550, 276 228 C 276 227.450, 274.425 227, 272.500 227 C 270.575 227, 269 227.450, 269 228 M 286 228 C 286 228.550, 286.450 229, 287 229 C 287.571 229, 288 231.980, 288 235.941 C 288 239.759, 287.550 243.160, 287 243.500 C 284.917 244.787, 286.130 246, 289.500 246 C 292.870 246, 294.083 244.787, 292 243.500 C 291.450 243.160, 291 239.759, 291 235.941 C 291 231.980, 291.429 229, 292 229 C 292.550 229, 293 228.550, 293 228 C 293 227.450, 291.425 227, 289.500 227 C 287.575 227, 286 227.450, 286 228 M 301.913 228.255 C 296.470 232.526, 296.906 242.269, 302.657 244.890 C 305.739 246.294, 307.277 246.287, 310.422 244.854 C 313.866 243.285, 312.724 242.008, 308.490 242.695 C 303.761 243.463, 302 241.768, 302 236.449 C 302 230.089, 306.736 226.567, 310 230.500 C 311.821 232.695, 313.186 232.331, 312.820 229.750 C 312.549 227.842, 311.816 227.463, 308 227.255 C 305.525 227.120, 302.786 227.570, 301.913 228.255 M 318 228 C 318 228.550, 318.450 229, 319 229 C 319.571 229, 320 231.980, 320 235.941 C 320 239.759, 319.550 243.160, 319 243.500 C 316.917 244.787, 318.130 246, 321.500 246 C 324.870 246, 326.083 244.787, 324 243.500 C 323.450 243.160, 323 239.759, 323 235.941 C 323 231.980, 323.429 229, 324 229 C 324.550 229, 325 228.550, 325 228 C 325 227.450, 323.425 227, 321.500 227 C 319.575 227, 318 227.450, 318 228 M 334.632 234.974 C 333.060 239.401, 331.374 243.269, 330.886 243.570 C 328.908 244.793, 330.207 246, 333.500 246 C 336.846 246, 338.303 244.601, 335.820 243.773 C 333.406 242.969, 335.908 240, 339 240 C 342.092 240, 344.594 242.969, 342.180 243.773 C 339.545 244.652, 341.253 246, 345 246 C 348.596 246, 350.456 244.686, 348.066 243.833 C 347.553 243.650, 345.833 239.900, 344.245 235.500 C 340.214 224.332, 338.448 224.235, 334.632 234.974 M 355.245 228.155 C 354.560 228.840, 354 230.666, 354 232.213 C 354 234.559, 354.752 235.391, 358.532 237.228 C 363.855 239.814, 364.175 242.336, 359.242 242.813 C 356.835 243.046, 356 242.724, 356 241.563 C 356 240.704, 355.550 240, 355 240 C 354.450 240, 354 241.116, 354 242.481 C 354 245.409, 357.779 246.823, 361.787 245.394 C 367.793 243.252, 367.313 237.212, 360.939 234.708 C 357.941 233.530, 356.927 232.612, 357.178 231.298 C 357.625 228.951, 362.030 228.302, 363.209 230.410 C 364.525 232.760, 366.187 232.340, 365.820 229.750 C 365.550 227.851, 364.798 227.454, 360.995 227.205 C 358.356 227.033, 355.974 227.426, 355.245 228.155 M 155 232 C 155 234.268, 155.458 235, 156.878 235 C 159.737 235, 161.558 232.377, 160 230.500 C 159.315 229.675, 157.910 229, 156.878 229 C 155.458 229, 155 229.732, 155 232 M 175.667 229.667 C 175.300 230.033, 175 231.638, 175 233.233 C 175 235.807, 175.309 236.097, 177.750 235.816 C 179.773 235.584, 180.589 234.869, 180.837 233.113 C 181.272 230.039, 177.685 227.648, 175.667 229.667 M 234 236 C 234 242.704, 234.101 243, 236.378 243 C 239.717 243, 241.245 240.702, 241.178 235.786 C 241.116 231.351, 239.256 229, 235.809 229 C 234.236 229, 234 229.913, 234 236 M 134.269 234.475 C 133.230 237.861, 133.287 238, 135.702 238 C 137.943 238, 138.143 237.701, 137.538 235.250 C 136.466 230.910, 135.438 230.666, 134.269 234.475 M 338.028 233.426 C 336.530 237.366, 336.727 238, 339.448 238 C 341.768 238, 341.839 237.830, 340.800 234.750 C 339.322 230.371, 339.210 230.317, 338.028 233.426 M 155 240 C 155 242.828, 155.268 243.102, 157.750 242.816 C 159.932 242.565, 160.500 241.984, 160.500 240 C 160.500 238.016, 159.932 237.435, 157.750 237.184 C 155.268 236.898, 155 237.172, 155 240 M 165 266 C 165 266.550, 165.442 267, 165.983 267 C 167.270 267, 172 276.362, 172 278.908 C 172 279.994, 171.550 281.160, 171 281.500 C 168.917 282.787, 170.130 284, 173.500 284 C 177.383 284, 177.526 283.815, 175.792 281.038 C 174.784 279.424, 175.063 278.098, 177.475 273.051 C 179.066 269.723, 180.735 267, 181.184 267 C 181.633 267, 182 266.550, 182 266 C 182 265.450, 180.602 265, 178.893 265 C 176.486 265, 175.921 265.352, 176.386 266.563 C 176.716 267.423, 176.259 269.533, 175.370 271.252 C 173.754 274.377, 173.754 274.377, 172.323 271.646 C 171.536 270.145, 171.172 268.035, 171.513 266.958 C 172.051 265.264, 171.654 265, 168.567 265 C 166.605 265, 165 265.450, 165 266 M 195 266 C 195 266.550, 195.450 267, 196 267 C 196.571 267, 197 269.980, 197 273.941 C 197 277.759, 196.550 281.160, 196 281.500 C 193.917 282.787, 195.130 284, 198.500 284 C 201.870 284, 203.083 282.787, 201 281.500 C 200.450 281.160, 200 279.559, 200 277.941 C 200 275.177, 200.240 275, 204 275 C 207.905 275, 208 275.083, 208 278.500 C 208 280.425, 207.550 282, 207 282 C 206.450 282, 206 282.450, 206 283 C 206 283.550, 207.800 284, 210 284 C 212.200 284, 214 283.550, 214 283 C 214 282.450, 213.550 282, 213 282 C 212.422 282, 212 278.833, 212 274.500 C 212 270.167, 212.422 267, 213 267 C 213.550 267, 214 266.550, 214 266 C 214 265.450, 212.200 265, 210 265 C 207.800 265, 206 265.450, 206 266 C 206 266.550, 206.450 267, 207 267 C 207.550 267, 208 268.350, 208 270 C 208 272.833, 207.778 273, 204 273 C 200.222 273, 200 272.833, 200 270 C 200 268.350, 200.450 267, 201 267 C 201.550 267, 202 266.550, 202 266 C 202 265.450, 200.425 265, 198.500 265 C 196.575 265, 195 265.450, 195 266 M 219 266 C 219 266.550, 219.450 267, 220 267 C 220.571 267, 221 269.980, 221 273.941 C 221 277.759, 220.550 281.160, 220 281.500 C 217.474 283.061, 219.539 284, 225.500 284 C 231.895 284, 232 283.956, 232 281.300 C 232 279.200, 231.733 278.867, 230.800 279.800 C 230.140 280.460, 228.340 281, 226.800 281 C 224.356 281, 224 280.619, 224 278 C 224 275.333, 224.333 275, 227 275 C 228.650 275, 230 274.550, 230 274 C 230 273.450, 228.650 273, 227 273 C 224.333 273, 224 272.667, 224 270 C 224 267.333, 224.333 267, 227 267 C 228.650 267, 230 267.450, 230 268 C 230 268.550, 230.450 269, 231 269 C 231.550 269, 232 268.100, 232 267 C 232 265.205, 231.333 265, 225.500 265 C 221.833 265, 219 265.436, 219 266 M 238 266 C 238 266.550, 238.450 267, 239 267 C 239.571 267, 240 269.980, 240 273.941 C 240 277.759, 239.550 281.160, 239 281.500 C 236.529 283.027, 238.475 284, 244 284 C 250 284, 250 284, 249.968 280.750 C 249.940 277.834, 249.800 277.680, 248.608 279.250 C 247.877 280.212, 246.317 281, 245.140 281 C 243.157 281, 243 280.486, 243 274 C 243 270, 243.429 267, 244 267 C 244.550 267, 245 266.550, 245 266 C 245 265.450, 243.425 265, 241.500 265 C 239.575 265, 238 265.450, 238 266 M 260.886 267.750 C 260.301 269.262, 258.933 272.854, 257.846 275.731 C 256.760 278.608, 255.450 281.222, 254.935 281.540 C 252.912 282.790, 254.173 284, 257.500 284 C 261.116 284, 261.811 283.211, 259.887 281.287 C 258.120 279.520, 259.819 278, 263.559 278 C 266.333 278, 267 278.387, 267 280 C 267 281.100, 266.550 282, 266 282 C 265.450 282, 265 282.450, 265 283 C 265 283.550, 266.800 284, 269 284 C 272.716 284, 274.187 282.852, 272.114 281.570 C 271.626 281.269, 269.946 277.417, 268.381 273.011 C 265.272 264.261, 262.885 262.586, 260.886 267.750 M 278 266 C 278 266.550, 278.450 267, 279 267 C 279.571 267, 280 269.980, 280 273.941 C 280 277.759, 279.550 281.160, 279 281.500 C 275.180 283.861, 281.489 284.825, 288.330 282.925 C 291.351 282.086, 292.480 281.095, 293.678 278.229 C 295.668 273.466, 294.172 267.855, 290.462 266.165 C 287.337 264.741, 278 264.617, 278 266 M 303.025 266.975 C 300.511 269.489, 299.608 273.098, 300.416 277.406 C 301.185 281.505, 302.731 282.920, 307.236 283.651 C 309.938 284.089, 311.261 283.680, 313.575 281.689 C 316.107 279.511, 316.500 278.479, 316.500 273.998 C 316.500 269.766, 316.070 268.475, 314.139 266.912 C 311.043 264.404, 305.565 264.435, 303.025 266.975 M 324.623 266.520 C 321.370 269.773, 322.782 273.175, 328.351 275.502 C 333.104 277.488, 333.046 280.349, 328.242 280.813 C 325.835 281.046, 325 280.724, 325 279.563 C 325 278.704, 324.550 278, 324 278 C 322.358 278, 322.869 282.736, 324.582 283.393 C 329.663 285.343, 335 282.522, 335 277.887 C 335 275.294, 334.391 274.618, 330.500 272.897 C 325.445 270.661, 324.680 268.369, 328.656 267.372 C 330.541 266.898, 331.661 267.183, 332.516 268.353 C 334.204 270.662, 335.196 270.402, 334.820 267.750 C 334.556 265.892, 333.780 265.447, 330.373 265.199 C 327.577 264.994, 325.722 265.421, 324.623 266.520 M 283 274 C 283 281, 283 281, 285.965 281 C 289.454 281, 291 278.739, 291 273.637 C 291 269.556, 288.855 267, 285.429 267 C 283.088 267, 283 267.255, 283 274 M 305.750 268.080 C 304.506 268.805, 304 270.362, 304 273.468 C 304 279.522, 304.766 281, 307.907 281 C 311.674 281, 313 279.274, 313 274.371 C 313 268.278, 309.952 265.633, 305.750 268.080 M 262.070 271.315 C 260.518 275.399, 260.710 276, 263.567 276 C 265.767 276, 266.036 275.678, 265.446 273.750 C 263.955 268.874, 263.204 268.333, 262.070 271.315 M 240.395 309.829 C 240.729 310.370, 241.902 310.577, 243.001 310.289 C 245.042 309.756, 245.832 311.421, 243.975 312.342 C 243.411 312.621, 243.524 312.734, 244.225 312.592 C 246.699 312.090, 245.501 309.500, 242.644 309.173 C 240.956 308.980, 240.036 309.249, 240.395 309.829 M 194.110 313.367 C 193.241 314.414, 193.374 315.058, 194.680 316.117 C 195.656 316.910, 196.080 316.993, 195.671 316.312 C 195.184 315.499, 196.151 314.999, 198.729 314.730 C 202.500 314.336, 202.500 314.336, 198.691 314.168 C 196.441 314.069, 195.135 313.591, 195.500 313 C 196.412 311.524, 195.423 311.785, 194.110 313.367 M 223.955 313.749 C 234.959 314.004, 237.763 314.374, 239.347 315.780 C 241.222 317.445, 241.239 317.428, 239.901 315.250 C 238.563 313.071, 238.075 313.007, 224.509 313.218 C 210.500 313.437, 210.500 313.437, 223.955 313.749 M 299.275 313.736 C 302.261 313.971, 303.807 314.502, 303.404 315.156 C 302.998 315.812, 303.546 315.778, 304.879 315.065 C 306.046 314.440, 307 313.720, 307 313.465 C 307 313.209, 304.188 313.081, 300.750 313.180 C 295.055 313.344, 294.924 313.394, 299.275 313.736 M 181.320 353 C 181.320 356.575, 181.502 358.038, 181.723 356.250 C 181.945 354.462, 181.945 351.538, 181.723 349.750 C 181.502 347.962, 181.320 349.425, 181.320 353 M 253.272 351 C 253.272 353.475, 253.467 354.488, 253.706 353.250 C 253.944 352.012, 253.944 349.988, 253.706 348.750 C 253.467 347.512, 253.272 348.525, 253.272 351 M 260.320 353 C 260.320 356.575, 260.502 358.038, 260.723 356.250 C 260.945 354.462, 260.945 351.538, 260.723 349.750 C 260.502 347.962, 260.320 349.425, 260.320 353 M 287.320 353 C 287.320 356.575, 287.502 358.038, 287.723 356.250 C 287.945 354.462, 287.945 351.538, 287.723 349.750 C 287.502 347.962, 287.320 349.425, 287.320 353 M 305.320 353 C 305.320 356.575, 305.502 358.038, 305.723 356.250 C 305.945 354.462, 305.945 351.538, 305.723 349.750 C 305.502 347.962, 305.320 349.425, 305.320 353 M 315.150 352.750 C 315 359, 315 359, 318.250 358.850 C 321.275 358.711, 321.310 358.671, 318.750 358.284 C 316.642 357.964, 316 357.315, 316 355.500 C 316 353.685, 316.642 353.036, 318.750 352.716 C 321.500 352.300, 321.500 352.300, 318.816 352.150 C 316.705 352.032, 316.044 351.413, 315.716 349.250 C 315.487 347.738, 315.232 349.313, 315.150 352.750 M 196.250 358.689 C 197.213 358.941, 198.787 358.941, 199.750 358.689 C 200.713 358.438, 199.925 358.232, 198 358.232 C 196.075 358.232, 195.287 358.438, 196.250 358.689" stroke="none" fill="#fcfcfc" fill-rule="evenodd"/><path d="M 170.987 235.796 C 171.475 242.500, 171.475 242.500, 171.792 236.604 C 171.966 233.362, 171.747 230.345, 171.304 229.900 C 170.862 229.455, 170.719 232.108, 170.987 235.796" stroke="none" fill="#636263" fill-rule="evenodd"/><path d="M 204.328 236.500 C 204.333 240.350, 204.513 241.802, 204.730 239.728 C 204.946 237.653, 204.943 234.503, 204.722 232.728 C 204.501 230.952, 204.324 232.650, 204.328 236.500 M 323.320 236 C 323.320 239.575, 323.502 241.037, 323.723 239.250 C 323.945 237.463, 323.945 234.537, 323.723 232.750 C 323.502 230.963, 323.320 232.425, 323.320 236 M 283.412 268.369 C 283.123 269.122, 283.054 272.160, 283.258 275.119 C 283.630 280.500, 283.630 280.500, 283.815 274.323 C 283.963 269.378, 284.349 268.055, 285.750 267.689 C 287.390 267.261, 287.388 267.225, 285.719 267.116 C 284.739 267.052, 283.701 267.616, 283.412 268.369 M 239.328 274.500 C 239.333 278.350, 239.513 279.802, 239.730 277.728 C 239.946 275.653, 239.943 272.503, 239.722 270.728 C 239.501 268.952, 239.324 270.650, 239.328 274.500 M 194 353 C 194 356.483, 194.315 359.019, 194.699 358.634 C 195.505 357.828, 195.378 348.045, 194.551 347.218 C 194.248 346.915, 194 349.517, 194 353 M 295.252 350.500 C 295.263 352.700, 295.468 353.482, 295.707 352.238 C 295.946 350.994, 295.937 349.194, 295.687 348.238 C 295.437 347.282, 295.241 348.300, 295.252 350.500" stroke="none" fill="#d0d1d0" fill-rule="evenodd"/><path d="" stroke="none" fill="#6f6e6e" fill-rule="evenodd"/><path d="M 234.500 35.080 C 204.182 37.524, 177.069 45.116, 152.009 58.177 C 109.184 80.497, 76.595 113.850, 55.938 156.500 C 45.929 177.163, 39.949 196.422, 36.387 219.453 C 34.479 231.798, 34.228 261.565, 35.915 275.500 C 43.499 338.146, 78.900 395.239, 131.806 430.148 C 179.972 461.929, 240.480 472.812, 297.896 460.023 C 370.228 443.911, 430.710 388.945, 454.491 317.710 C 466.422 281.968, 468.381 241.171, 460.008 202.795 C 449.477 154.531, 419.384 108.032, 379.012 77.642 C 338.013 46.780, 284.578 31.042, 234.500 35.080 M 232.500 51.038 C 194.861 54.347, 155.551 70.062, 125.612 93.766 C 115.641 101.660, 99.512 118.018, 92.316 127.533 C 61.921 167.722, 47.619 214.023, 50.911 261.581 C 53.232 295.114, 62.010 323.845, 78.570 352.113 C 104.457 396.303, 151.535 431.386, 201 443.348 C 235.071 451.588, 264.847 451.592, 298.500 443.360 C 354.132 429.753, 403.364 389.923, 428.753 337.982 C 442.634 309.586, 449.080 282.217, 449.113 251.546 C 449.161 205.641, 435.657 165.236, 407.989 128.505 C 400.089 118.016, 379.790 97.897, 369 89.861 C 343.319 70.734, 310.552 57.058, 279.705 52.591 C 266.260 50.644, 244.949 49.943, 232.500 51.038 M 237.500 63.112 C 172.731 67.022, 113.878 105.636, 83.655 164.051 C 67.435 195.399, 61.180 225.572, 63.184 262.793 C 66.332 321.247, 100.294 377.386, 152.053 409.692 C 212.420 447.371, 292.218 446.281, 352 406.962 C 394.359 379.102, 423.047 337.029, 433.758 287.058 C 436.265 275.360, 436.450 272.822, 436.450 250 C 436.450 227.178, 436.265 224.640, 433.758 212.942 C 422.985 162.683, 394.603 121.058, 352 93.038 C 318.058 70.714, 279.311 60.587, 237.500 63.112 M 271.970 108.379 C 268.500 109.500, 268.500 109.500, 267.844 119 C 267.484 124.225, 266.440 130.247, 265.525 132.383 C 263.418 137.302, 255.229 146.003, 248.859 150.090 C 243.955 153.237, 243.955 153.237, 237.742 149.065 C 226.736 141.675, 219.392 138.588, 211.798 138.158 C 203.037 137.663, 200.157 138.931, 196.754 144.780 C 195.244 147.376, 193.461 150.264, 192.792 151.197 C 190.536 154.347, 192.937 158.252, 198.524 160.520 C 206.177 163.626, 208.581 165.638, 213.430 172.999 C 216.453 177.587, 219.279 180.566, 222.112 182.151 C 225.899 184.269, 226.525 185.187, 228.471 191.470 C 230.256 197.233, 231.294 198.922, 234.464 201.220 C 238.930 204.458, 243.727 204.834, 246.587 202.170 C 247.668 201.163, 250.086 200.033, 251.960 199.658 C 253.835 199.283, 256.161 198.259, 257.129 197.383 C 258.772 195.896, 259.129 196.163, 262.447 201.350 C 265.349 205.886, 266.647 207.031, 269.495 207.565 C 277.152 209.002, 279.931 206.001, 276.500 200 C 275.714 198.625, 275.055 196.262, 275.035 194.750 C 275.001 192.047, 275.104 192, 281.099 192 C 292.011 192, 296.131 188.248, 295.627 178.767 C 295.345 173.455, 291.610 170.650, 283.327 169.532 C 275.546 168.481, 275.088 167.858, 273.806 156.576 C 272.683 146.688, 272.684 146.674, 275.091 144.881 C 276.416 143.894, 278.651 142.204, 280.057 141.126 C 281.491 140.028, 283.849 136.101, 285.424 132.189 C 288.233 125.211, 288.233 125.211, 286.622 118.864 C 284.378 110.021, 278.937 106.127, 271.970 108.379 M 271.255 111.250 C 270.710 111.938, 270.028 116.129, 269.739 120.565 C 269.022 131.595, 266.354 137.404, 258.656 144.693 C 255.270 147.900, 250.925 151.581, 249 152.874 C 242.666 157.126, 229.039 177.879, 229.010 183.318 C 229.001 185.032, 229.162 185.021, 231.811 183.135 C 234.669 181.099, 240 179.301, 240 180.371 C 240 180.695, 238.178 181.889, 235.951 183.025 C 231.113 185.493, 230.569 186.640, 231.451 192.519 C 232.005 196.218, 232.773 197.453, 235.794 199.506 C 240.074 202.415, 243.201 202.683, 245.128 200.308 C 246.044 199.179, 246.087 198.864, 245.258 199.362 C 244.575 199.773, 243.243 199.676, 242.298 199.147 C 240.935 198.384, 241.538 198.042, 245.219 197.490 C 247.770 197.107, 250.322 197.081, 250.889 197.431 C 252.138 198.203, 260 191.308, 260 189.440 C 260 187.508, 264.225 184.746, 265.076 186.122 C 266.499 188.425, 269.947 185.910, 271.152 181.690 C 272.553 176.783, 272.801 163.950, 271.655 155.726 C 270.850 149.951, 270.850 149.951, 267.175 155.304 C 261.220 163.976, 259.065 166.584, 259.032 165.159 C 259.014 164.421, 260.725 161.271, 262.833 158.159 C 264.941 155.047, 267.871 150.590, 269.343 148.256 C 270.816 145.922, 273.803 142.887, 275.982 141.512 C 283.590 136.708, 289.365 119.509, 282.669 121.591 C 280.579 122.241, 280.564 122.194, 282.250 120.304 C 284.492 117.791, 284.468 115.733, 282.171 113.655 C 279.889 111.589, 278.068 111.564, 275.223 113.557 C 273.205 114.970, 273 114.967, 273 113.524 C 273 112.651, 274.012 111.529, 275.250 111.031 C 277.449 110.147, 277.440 110.125, 274.872 110.063 C 273.427 110.029, 271.799 110.563, 271.255 111.250 M 273 122.132 C 273 122.754, 274.575 124.749, 276.500 126.565 C 278.425 128.380, 280 130.372, 280 130.992 C 280 131.611, 280.450 131.840, 281 131.500 C 282.852 130.355, 282.019 128.118, 279.250 126.800 C 277.738 126.080, 276.056 124.481, 275.513 123.246 C 274.470 120.874, 273 120.222, 273 122.132 M 270.752 132.226 C 270.478 135.080, 269.747 137.584, 269.127 137.791 C 268.507 137.998, 268 138.774, 268 139.516 C 268 140.258, 267.100 141.151, 266 141.500 C 264.900 141.849, 264 142.835, 264 143.690 C 264 145.027, 264.245 145.052, 265.746 143.872 C 268.830 141.449, 270 140.165, 270 139.206 C 270 138.691, 270.914 137.107, 272.032 135.686 C 273.452 133.881, 273.870 132.332, 273.421 130.542 C 272.321 126.159, 271.272 126.821, 270.752 132.226 M 201.750 141.717 C 200.787 142.784, 200 144.007, 200 144.435 C 200 144.862, 198.572 147.015, 196.826 149.219 C 193.122 153.896, 193.560 155.466, 199.376 158.360 C 203.961 160.640, 204.907 159.969, 202.114 156.418 C 200.951 154.940, 200 152.941, 200 151.976 C 200 149.718, 203.589 145.262, 204.597 146.267 C 205.020 146.688, 204.834 147.566, 204.183 148.217 C 201.888 150.512, 203.061 154.064, 208.815 162.239 C 212.014 166.782, 215.659 172.201, 216.916 174.281 C 218.173 176.361, 220.922 178.940, 223.025 180.013 C 226.849 181.963, 226.849 181.963, 228.584 177.420 C 229.538 174.921, 232.047 170.409, 234.160 167.394 C 236.272 164.378, 238 161.514, 238 161.028 C 238 160.543, 236.313 158.720, 234.250 156.977 C 231.014 154.242, 230.842 153.906, 233 154.519 C 234.375 154.910, 236.426 156.075, 237.557 157.108 C 239.150 158.563, 239.883 158.717, 240.807 157.793 C 242.876 155.724, 242.138 154.600, 236.196 150.773 C 224.805 143.435, 218.192 140.712, 210.584 140.227 C 204.492 139.839, 203.255 140.047, 201.750 141.717 M 212 161.441 C 212 163.334, 212.450 165.160, 213 165.500 C 213.604 165.873, 214 164.510, 214 162.059 C 214 159.827, 213.550 158, 213 158 C 212.450 158, 212 159.548, 212 161.441 M 268.988 160.977 C 269.871 162.627, 269.774 162.851, 268.407 162.326 C 267.009 161.789, 266.935 162.010, 267.907 163.826 C 268.876 165.636, 268.803 165.862, 267.422 165.332 C 265.926 164.757, 265.924 164.953, 267.407 167.820 C 269.772 172.394, 272.172 171.091, 271.412 165.645 C 270.631 160.054, 270.248 159, 268.996 159 C 268.244 159, 268.241 159.582, 268.988 160.977 M 215 163.854 C 215 166.579, 215.732 168.498, 217.500 170.405 C 218.875 171.889, 220.007 173.642, 220.015 174.302 C 220.025 175.079, 220.345 175.004, 220.925 174.088 C 221.616 172.995, 221.921 173.221, 222.273 175.088 C 222.701 177.358, 222.736 177.338, 222.864 174.750 C 222.939 173.238, 222.550 172, 222 172 C 221.450 172, 221 171.415, 221 170.699 C 221 168.860, 218.648 164.017, 217.750 164.008 C 217.338 164.004, 217 163.100, 217 162 C 217 160.900, 216.550 160, 216 160 C 215.450 160, 215 161.734, 215 163.854 M 265 168.382 C 265 169.207, 265.450 170.160, 266 170.500 C 266.550 170.840, 267 170.443, 267 169.618 C 267 168.793, 266.550 167.840, 266 167.500 C 265.450 167.160, 265 167.557, 265 168.382 M 260.250 169.220 C 257.239 170.673, 257.362 172.193, 260.397 171.039 C 261.716 170.538, 263.066 170.399, 263.397 170.731 C 263.729 171.062, 264 170.583, 264 169.667 C 264 167.766, 263.411 167.696, 260.250 169.220 M 274.037 178.161 C 272.861 186.205, 272.889 186.492, 275.024 188.220 C 276.233 189.199, 278.329 190, 279.683 190 C 282.145 190, 282.145 190, 280.073 187.365 C 278.933 185.916, 278 184.271, 278 183.710 C 278 182.164, 281.860 185.983, 282.575 188.237 C 283.083 189.838, 283.783 190.093, 286.285 189.593 C 291.246 188.601, 293 186.333, 293 180.913 C 293 176.837, 292.596 175.852, 290.250 174.203 C 288.738 173.139, 285.305 171.947, 282.622 171.554 C 279.939 171.161, 277.183 170.624, 276.496 170.360 C 275.614 170.021, 274.892 172.309, 274.037 178.161 M 261 172.667 C 257.300 173.250, 247 177.345, 247 178.233 C 247 179.260, 247.258 179.227, 252.215 177.553 C 258.694 175.366, 265.083 174.095, 266.623 174.686 C 267.380 174.976, 268 176.264, 268 177.548 C 268 178.832, 268.450 180.160, 269 180.500 C 269.596 180.868, 270 179.669, 270 177.534 C 270 174.607, 269.530 173.772, 267.435 172.975 C 266.024 172.439, 264.562 172.061, 264.185 172.136 C 263.808 172.211, 262.375 172.450, 261 172.667 M 224 176 C 224 177.311, 224.485 177.751, 225.500 177.362 C 226.325 177.045, 227 176.432, 227 176 C 227 175.568, 226.325 174.955, 225.500 174.638 C 224.485 174.249, 224 174.689, 224 176 M 289.306 182.482 C 288.649 183.205, 287.524 184.033, 286.806 184.322 C 285.778 184.736, 285.819 185.073, 287 185.909 C 289.226 187.483, 290.429 187.221, 288.981 185.477 C 287.933 184.214, 287.980 184.055, 289.257 184.545 C 291.023 185.223, 292.659 183.242, 291.363 181.996 C 290.888 181.540, 289.963 181.759, 289.306 182.482 M 252.500 185.299 C 249.610 186.864, 248.988 187.560, 250.260 187.808 C 251.815 188.111, 259 184.502, 259 183.418 C 259 182.471, 256.260 183.264, 252.500 185.299 M 282 184.765 C 282 186.063, 284.251 188, 285.759 188 C 286.506 188, 286.841 187.552, 286.503 187.005 C 285.619 185.574, 282 183.774, 282 184.765 M 276.032 186.191 C 276.014 187.121, 276.480 188.179, 277.067 188.541 C 278.829 189.630, 279.076 188.482, 277.521 186.427 C 276.241 184.735, 276.060 184.706, 276.032 186.191 M 242.223 188.557 C 240.841 189.524, 240.012 191.133, 240.030 192.807 C 240.059 195.306, 240.138 195.356, 241.137 193.500 C 241.729 192.400, 243.403 190.490, 244.857 189.255 C 247.949 186.628, 245.792 186.056, 242.223 188.557 M 267.500 188.669 C 265.300 189.436, 262.614 190.948, 261.532 192.028 C 259.752 193.804, 259.713 194.141, 261.116 195.545 C 262.520 196.949, 262.661 196.887, 262.585 194.900 C 262.538 193.691, 263.125 192.486, 263.889 192.221 C 264.825 191.898, 265.016 192.165, 264.475 193.040 C 263.898 193.974, 264.141 194.160, 265.336 193.701 C 267.122 193.016, 267.660 194.474, 266 195.500 C 264.474 196.443, 264.809 202.597, 266.461 203.967 C 267.264 204.634, 269.739 205.424, 271.961 205.722 C 276.463 206.325, 276.987 205.351, 274.500 201 C 273.714 199.625, 273.048 196.475, 273.020 194 C 272.948 187.630, 272.293 186.997, 267.500 188.669 M 235.015 194.250 C 235.028 196.069, 235.216 196.213, 236 195 C 237.253 193.061, 237.253 192, 236 192 C 235.450 192, 235.007 193.012, 235.015 194.250 M 266.180 199.250 C 266.356 200.488, 266.900 201.349, 267.388 201.165 C 267.877 200.980, 268.657 201.430, 269.123 202.165 C 269.687 203.054, 269.974 203.107, 269.985 202.321 C 269.993 201.673, 269.346 200.489, 268.548 199.690 C 267.749 198.892, 267.374 197.960, 267.714 197.619 C 268.055 197.279, 267.777 197, 267.097 197 C 266.387 197, 265.997 197.958, 266.180 199.250 M 130.593 234.085 C 129.013 238.532, 127.108 242.405, 126.360 242.692 C 125.612 242.979, 125 243.841, 125 244.607 C 125 245.612, 126.393 246, 130 246 C 133.778 246, 135 245.633, 135 244.500 C 135 243.675, 134.550 243, 134 243 C 133.450 243, 133 242.550, 133 242 C 133 241.450, 134.350 241, 136 241 C 137.650 241, 139 241.450, 139 242 C 139 242.550, 138.550 243, 138 243 C 137.450 243, 137 243.675, 137 244.500 C 137 245.633, 138.222 246, 142 246 C 145.607 246, 147 245.612, 147 244.607 C 147 243.841, 146.421 242.992, 145.712 242.720 C 145.004 242.448, 143.154 238.575, 141.601 234.113 C 139.023 226.708, 138.545 226, 136.121 226 C 133.703 226, 133.209 226.723, 130.593 234.085 M 149 228 C 149 229.100, 149.450 230, 150 230 C 150.564 230, 151 232.833, 151 236.500 C 151 240.167, 150.564 243, 150 243 C 149.450 243, 149 243.675, 149 244.500 C 149 245.690, 150.442 246, 155.977 246 C 162.404 246, 163.089 245.793, 164.674 243.375 C 166.274 240.933, 166.280 240.553, 164.756 237.898 C 163.813 236.255, 163.518 234.798, 164.059 234.463 C 164.577 234.144, 165 232.809, 165 231.498 C 165 227.912, 161.444 226, 154.777 226 C 149.667 226, 149 226.231, 149 228 M 169 227.441 C 169 228.234, 169.450 229.160, 170 229.500 C 170.550 229.840, 171 233.016, 171 236.559 C 171 240.186, 170.563 243, 170 243 C 169.450 243, 169 243.675, 169 244.500 C 169 245.611, 170.167 246, 173.500 246 C 176.833 246, 178 245.611, 178 244.500 C 178 243.675, 177.550 243, 177 243 C 176.450 243, 176 242.100, 176 241 C 176 237.887, 177.861 238.641, 179.701 242.500 C 181.025 245.276, 181.953 246, 184.185 246 C 186.021 246, 187 245.478, 187 244.500 C 187 243.675, 186.622 243, 186.161 243 C 185.699 243, 184.800 241.857, 184.164 240.460 C 183.234 238.419, 183.310 237.457, 184.549 235.566 C 186.604 232.430, 185.490 228.137, 182.308 226.927 C 178.269 225.391, 169 225.749, 169 227.441 M 190 228 C 190 229.100, 190.450 230, 191 230 C 191.564 230, 192 232.833, 192 236.500 C 192 240.167, 191.564 243, 191 243 C 190.450 243, 190 243.675, 190 244.500 C 190 245.611, 191.167 246, 194.500 246 C 197.833 246, 199 245.611, 199 244.500 C 199 243.675, 198.550 243, 198 243 C 197.437 243, 197 240.186, 197 236.559 C 197 233.016, 197.450 229.840, 198 229.500 C 198.550 229.160, 199 228.234, 199 227.441 C 199 226.400, 197.751 226, 194.500 226 C 190.667 226, 190 226.296, 190 228 M 202 228 C 202 229.100, 202.450 230, 203 230 C 203.564 230, 204 232.833, 204 236.500 C 204 240.167, 203.564 243, 203 243 C 202.450 243, 202 243.675, 202 244.500 C 202 245.690, 203.444 246, 209 246 C 216 246, 216 246, 216 242.500 C 216 238.869, 213.773 237.544, 212.638 240.500 C 212.322 241.325, 211.374 242, 210.531 242 C 209.326 242, 209 240.721, 209 236 C 209 232.667, 209.444 230, 210 230 C 210.550 230, 211 229.100, 211 228 C 211 226.296, 210.333 226, 206.500 226 C 202.667 226, 202 226.296, 202 228 M 227.406 227.152 C 227.015 227.785, 227.438 228.847, 228.347 229.512 C 230.603 231.162, 230.728 242.506, 228.500 243.362 C 224.973 244.715, 227.368 246, 233.418 246 C 241.331 246, 242.689 245.503, 244.537 241.928 C 247.391 236.409, 245.828 229.154, 241.343 227.110 C 238.138 225.650, 228.316 225.679, 227.406 227.152 M 250 228 C 250 229.100, 250.450 230, 251 230 C 251.564 230, 252 232.833, 252 236.500 C 252 240.167, 251.564 243, 251 243 C 250.450 243, 250 243.675, 250 244.500 C 250 245.700, 251.500 246, 257.500 246 C 265 246, 265 246, 265 243 C 265 240.667, 264.556 240, 263 240 C 261.900 240, 261 240.450, 261 241 C 261 241.550, 260.100 242, 259 242 C 257.667 242, 257 241.333, 257 240 C 257 238.533, 257.667 238, 259.500 238 C 261.333 238, 262 237.467, 262 236 C 262 234.533, 261.333 234, 259.500 234 C 257.667 234, 257 233.467, 257 232 C 257 230.667, 257.667 230, 259 230 C 260.100 230, 261 230.450, 261 231 C 261 231.550, 261.900 232, 263 232 C 264.556 232, 265 231.333, 265 229 C 265 226, 265 226, 257.500 226 C 250.667 226, 250 226.178, 250 228 M 268 228 C 268 229.100, 268.450 230, 269 230 C 269.564 230, 270 232.833, 270 236.500 C 270 240.167, 269.564 243, 269 243 C 268.450 243, 268 243.675, 268 244.500 C 268 245.700, 269.500 246, 275.500 246 C 283 246, 283 246, 283 242.500 C 283 239.667, 282.619 239, 281 239 C 279.889 239, 279 239.667, 279 240.500 C 279 241.333, 278.111 242, 277 242 C 275.222 242, 275 241.333, 275 236 C 275 232.667, 275.444 230, 276 230 C 276.550 230, 277 229.100, 277 228 C 277 226.296, 276.333 226, 272.500 226 C 268.667 226, 268 226.296, 268 228 M 285 228 C 285 229.100, 285.450 230, 286 230 C 286.564 230, 287 232.833, 287 236.500 C 287 240.167, 286.564 243, 286 243 C 285.450 243, 285 243.675, 285 244.500 C 285 245.611, 286.167 246, 289.500 246 C 292.833 246, 294 245.611, 294 244.500 C 294 243.675, 293.550 243, 293 243 C 292.436 243, 292 240.167, 292 236.500 C 292 232.833, 292.436 230, 293 230 C 293.550 230, 294 229.100, 294 228 C 294 226.296, 293.333 226, 289.500 226 C 285.667 226, 285 226.296, 285 228 M 300.306 228.413 C 297.866 230.512, 297.500 231.542, 297.500 236.308 C 297.500 240.278, 298.021 242.365, 299.387 243.875 C 302.060 246.829, 307.049 247.543, 310.942 245.530 C 315.324 243.264, 314.359 241.418, 309.009 241.833 C 306.215 242.050, 304.426 241.702, 303.876 240.833 C 302.615 238.845, 302.827 232.573, 304.200 231.200 C 305.870 229.530, 308.948 229.700, 309.638 231.500 C 309.955 232.325, 311.066 233, 312.107 233 C 314.538 233, 314.805 227.523, 312.418 226.607 C 308.712 225.185, 303.083 226.024, 300.306 228.413 M 317 228 C 317 229.100, 317.450 230, 318 230 C 318.564 230, 319 232.833, 319 236.500 C 319 240.167, 318.564 243, 318 243 C 317.450 243, 317 243.675, 317 244.500 C 317 245.611, 318.167 246, 321.500 246 C 324.833 246, 326 245.611, 326 244.500 C 326 243.675, 325.550 243, 325 243 C 324.436 243, 324 240.167, 324 236.500 C 324 232.833, 324.436 230, 325 230 C 325.550 230, 326 229.100, 326 228 C 326 226.296, 325.333 226, 321.500 226 C 317.667 226, 317 226.296, 317 228 M 335.687 229.250 C 334.950 231.037, 333.505 234.863, 332.476 237.750 C 331.447 240.637, 330.244 243, 329.802 243 C 329.361 243, 329 243.675, 329 244.500 C 329 245.611, 330.167 246, 333.500 246 C 336.833 246, 338 245.611, 338 244.500 C 338 243.675, 337.550 243, 337 243 C 336.450 243, 336 242.550, 336 242 C 336 241.450, 337.350 241, 339 241 C 340.650 241, 342 241.450, 342 242 C 342 242.550, 341.550 243, 341 243 C 340.450 243, 340 243.675, 340 244.500 C 340 245.633, 341.222 246, 345 246 C 348.607 246, 350 245.612, 350 244.607 C 350 243.841, 349.383 242.977, 348.629 242.688 C 347.874 242.398, 346.961 240.982, 346.599 239.540 C 346.238 238.098, 345.022 234.462, 343.899 231.459 C 342.200 226.918, 341.450 226, 339.442 226 C 337.659 226, 336.676 226.851, 335.687 229.250 M 354.655 227.829 C 351.150 231.702, 353.004 236.123, 359.250 238.785 C 362.682 240.248, 362.818 242, 359.500 242 C 358.125 242, 357 241.550, 357 241 C 357 240.450, 356.100 240, 355 240 C 353.451 240, 353 240.667, 353 242.955 C 353 245.525, 353.444 245.993, 356.413 246.550 C 362.624 247.715, 367 244.959, 367 239.882 C 367 237.596, 366.288 236.512, 363.925 235.203 C 362.234 234.267, 360.096 232.970, 359.175 232.321 C 357.629 231.234, 357.646 231.086, 359.395 230.409 C 360.684 229.909, 361.707 230.246, 362.597 231.463 C 364.326 233.828, 367 232.721, 367 229.638 C 367 226.852, 365.378 226, 360.073 226 C 357.697 226, 355.700 226.674, 354.655 227.829 M 156 232 C 156 233.506, 156.522 234.046, 157.750 233.810 C 158.713 233.624, 159.500 232.810, 159.500 232 C 159.500 231.190, 158.713 230.376, 157.750 230.190 C 156.522 229.954, 156 230.494, 156 232 M 176 232.500 C 176 234.482, 176.439 235.062, 177.750 234.810 C 178.713 234.624, 179.500 233.585, 179.500 232.500 C 179.500 231.415, 178.713 230.376, 177.750 230.190 C 176.439 229.938, 176 230.518, 176 232.500 M 235 235.996 C 235 241.732, 235.144 242.118, 237.172 241.820 C 241.796 241.139, 241.425 231.091, 236.742 230.189 C 235.239 229.899, 235 230.694, 235 235.996 M 156 240 C 156 241.333, 156.667 242, 158 242 C 159.333 242, 160 241.333, 160 240 C 160 238.667, 159.333 238, 158 238 C 156.667 238, 156 238.667, 156 240 M 164 264.913 C 164 265.415, 165.575 268.217, 167.500 271.140 C 170.874 276.263, 172.075 281, 170 281 C 169.450 281, 169 281.675, 169 282.500 C 169 283.611, 170.167 284, 173.500 284 C 176.833 284, 178 283.611, 178 282.500 C 178 281.675, 177.550 281, 177 281 C 176.450 281, 176 280.310, 176 279.467 C 176 277.251, 180.854 268, 182.017 268 C 182.558 268, 183 267.100, 183 266 C 183 264.332, 182.333 264, 178.984 264 C 175.209 264, 174.981 264.167, 175.180 266.779 C 175.296 268.307, 175.001 270.189, 174.523 270.962 C 173.821 272.099, 173.515 271.998, 172.923 270.434 C 172.520 269.370, 172.421 267.488, 172.703 266.250 C 173.179 264.168, 172.873 264, 168.608 264 C 166.074 264, 164 264.411, 164 264.913 M 194 266 C 194 267.100, 194.450 268, 195 268 C 195.564 268, 196 270.833, 196 274.500 C 196 278.167, 195.564 281, 195 281 C 194.450 281, 194 281.675, 194 282.500 C 194 283.611, 195.167 284, 198.500 284 C 201.833 284, 203 283.611, 203 282.500 C 203 281.675, 202.550 281, 202 281 C 201.450 281, 201 279.875, 201 278.500 C 201 276.389, 201.467 276, 204 276 C 206.533 276, 207 276.389, 207 278.500 C 207 279.875, 206.550 281, 206 281 C 205.450 281, 205 281.675, 205 282.500 C 205 283.633, 206.222 284, 210 284 C 213.778 284, 215 283.633, 215 282.500 C 215 281.675, 214.550 281, 214 281 C 213.437 281, 213 278.186, 213 274.559 C 213 271.016, 213.450 267.840, 214 267.500 C 214.550 267.160, 215 266.234, 215 265.441 C 215 264.378, 213.687 264, 210 264 C 206.313 264, 205 264.378, 205 265.441 C 205 266.234, 205.450 267.160, 206 267.500 C 206.550 267.840, 207 268.991, 207 270.059 C 207 271.549, 206.303 272, 204 272 C 201.667 272, 201 271.556, 201 270 C 201 268.900, 201.450 268, 202 268 C 202.550 268, 203 267.100, 203 266 C 203 264.296, 202.333 264, 198.500 264 C 194.667 264, 194 264.296, 194 266 M 218 265.441 C 218 266.234, 218.450 267.160, 219 267.500 C 219.550 267.840, 220 271.016, 220 274.559 C 220 278.186, 219.563 281, 219 281 C 218.450 281, 218 281.675, 218 282.500 C 218 283.700, 219.500 284, 225.500 284 C 233 284, 233 284, 233 281 C 233 279, 232.500 278, 231.500 278 C 230.675 278, 230 278.450, 230 279 C 230 279.550, 228.875 280, 227.500 280 C 225.667 280, 225 279.467, 225 278 C 225 276.444, 225.667 276, 228 276 C 230.333 276, 231 275.556, 231 274 C 231 272.444, 230.333 272, 228 272 C 225.667 272, 225 271.556, 225 270 C 225 268.667, 225.667 268, 227 268 C 228.100 268, 229 268.450, 229 269 C 229 269.550, 229.900 270, 231 270 C 232.556 270, 233 269.333, 233 267 C 233 264, 233 264, 225.500 264 C 219.637 264, 218 264.314, 218 265.441 M 237 266 C 237 267.100, 237.450 268, 238 268 C 238.564 268, 239 270.833, 239 274.500 C 239 278.167, 238.564 281, 238 281 C 237.450 281, 237 281.675, 237 282.500 C 237 283.690, 238.444 284, 244 284 C 251 284, 251 284, 251 280.500 C 251 276.869, 248.773 275.544, 247.638 278.500 C 247.322 279.325, 246.374 280, 245.531 280 C 244.326 280, 244 278.721, 244 274 C 244 270.667, 244.444 268, 245 268 C 245.550 268, 246 267.100, 246 266 C 246 264.296, 245.333 264, 241.500 264 C 237.667 264, 237 264.296, 237 266 M 257.964 272.443 C 256.188 277.149, 254.344 281, 253.867 281 C 253.390 281, 253 281.675, 253 282.500 C 253 283.611, 254.167 284, 257.500 284 C 260.833 284, 262 283.611, 262 282.500 C 262 281.675, 261.523 281, 260.941 281 C 260.359 281, 260.160 280.550, 260.500 280 C 261.284 278.732, 266 278.681, 266 279.941 C 266 280.459, 265.550 281.160, 265 281.500 C 262.658 282.947, 264.343 284, 269 284 C 272.647 284, 274 283.617, 274 282.583 C 274 281.804, 273.580 281.017, 273.066 280.833 C 272.553 280.650, 270.834 276.900, 269.246 272.500 C 266.738 265.548, 266.022 264.460, 263.777 264.193 C 261.381 263.908, 260.959 264.507, 257.964 272.443 M 277 266 C 277 267.100, 277.450 268, 278 268 C 278.564 268, 279 270.833, 279 274.500 C 279 278.167, 278.564 281, 278 281 C 277.450 281, 277 281.675, 277 282.500 C 277 283.687, 278.425 284, 283.826 284 C 289.827 284, 290.937 283.696, 293.018 281.481 C 294.870 279.509, 295.385 277.850, 295.385 273.845 C 295.385 269.503, 294.968 268.369, 292.637 266.364 C 290.362 264.408, 288.777 264, 283.444 264 C 277.667 264, 277 264.207, 277 266 M 302.306 266.413 C 299.845 268.530, 299.500 269.524, 299.500 274.500 C 299.500 279.476, 299.845 280.470, 302.306 282.587 C 306.123 285.870, 310.187 285.698, 314.234 282.082 C 317.098 279.524, 317.500 278.548, 317.500 274.163 C 317.500 270.246, 316.974 268.602, 315.076 266.581 C 311.825 263.121, 306.219 263.047, 302.306 266.413 M 323.696 265.783 C 320.150 269.701, 321.976 274.111, 328.250 276.785 C 331.682 278.248, 331.818 280, 328.500 280 C 327.125 280, 326 279.550, 326 279 C 326 278.450, 325.100 278, 324 278 C 322.457 278, 322 278.667, 322 280.921 C 322 283.353, 322.502 283.951, 325 284.500 C 328.671 285.306, 333.467 284.348, 334.999 282.501 C 335.625 281.747, 335.993 279.644, 335.818 277.828 C 335.557 275.114, 334.741 274.108, 331.241 272.182 C 326.962 269.829, 326.445 268, 330.059 268 C 331.127 268, 332 268.675, 332 269.500 C 332 270.349, 332.896 271, 334.063 271 C 335.789 271, 336.075 270.468, 335.813 267.750 C 335.510 264.599, 335.346 264.491, 330.446 264.205 C 326.521 263.975, 325.013 264.328, 323.696 265.783 M 284 274 C 284 279.111, 284.267 280, 285.800 280 C 288.569 280, 290 277.955, 290 274 C 290 270.045, 288.569 268, 285.800 268 C 284.267 268, 284 268.889, 284 274 M 306.061 269.426 C 305.410 270.210, 305.018 272.798, 305.189 275.176 C 305.454 278.865, 305.851 279.550, 307.887 279.837 C 310.813 280.251, 311.965 278.597, 311.985 273.950 C 312.007 268.709, 308.732 266.208, 306.061 269.426 M 262.697 272.393 C 262.288 273.434, 262.189 274.522, 262.476 274.810 C 263.389 275.722, 264.191 274.227, 263.809 272.328 C 263.459 270.588, 263.405 270.591, 262.697 272.393 M 251.067 308.933 C 250.004 309.996, 248.377 312.021, 247.452 313.433 C 245.434 316.512, 241.522 316.843, 240.032 314.061 C 239.342 312.771, 239.330 311.914, 239.997 311.502 C 240.549 311.161, 241 311.310, 241 311.834 C 241 313.650, 244.343 314.085, 245.928 312.476 C 247.359 311.021, 247.326 310.748, 245.559 309.439 C 242.931 307.491, 240.370 307.630, 238.159 309.841 C 236.551 311.449, 233.843 311.769, 216.659 312.381 C 203.266 312.857, 197 312.749, 197 312.040 C 197 310.518, 195.373 310.770, 193.571 312.571 C 191.423 314.720, 191.583 315.439, 194.565 317.035 C 196.764 318.211, 197.258 318.200, 198.028 316.954 C 198.739 315.803, 202.842 315.373, 217.713 314.888 C 235.123 314.322, 236.651 314.413, 238.564 316.138 C 242.256 319.468, 246.291 318.572, 250.446 313.500 C 252.475 311.025, 254.709 309, 255.412 309 C 257.179 309, 260.502 312.843, 259.524 313.756 C 259.085 314.165, 258.525 313.938, 258.280 313.250 C 257.740 311.738, 253.376 311.583, 252.473 313.044 C 251.516 314.592, 253.926 317, 256.431 317 C 257.634 317, 259.491 316.339, 260.559 315.532 C 262.105 314.362, 266.403 314.057, 281.700 314.032 C 298.685 314.004, 301.009 314.194, 301.844 315.685 C 302.722 317.254, 302.979 317.244, 305.576 315.542 C 308.366 313.714, 308.366 313.714, 306.072 311.857 C 303.531 309.799, 302 309.477, 302 311 C 302 311.632, 294.848 312, 282.545 312 C 263.127 312, 263.086 311.995, 260.591 309.500 C 257.601 306.510, 253.721 306.279, 251.067 308.933 M 181 352.440 C 181 356.147, 181.435 359, 182 359 C 182.550 359, 183 357.875, 183 356.500 C 183 355.125, 183.460 354, 184.021 354 C 184.583 354, 185.555 355.125, 186.182 356.500 C 186.808 357.875, 187.924 359, 188.661 359 C 190.390 359, 190.348 358.461, 188.385 355.465 C 187.307 353.820, 187.162 353, 187.948 353 C 188.675 353, 189.007 351.755, 188.813 349.750 C 188.527 346.783, 188.174 346.473, 184.750 346.190 C 181 345.879, 181 345.879, 181 352.440 M 194 352.500 C 194 359, 194 359, 198 359 C 200.200 359, 202 358.550, 202 358 C 202 357.450, 200.650 357, 199 357 C 196.667 357, 196 356.556, 196 355 C 196 353.533, 196.667 353, 198.500 353 C 199.875 353, 201 352.550, 201 352 C 201 351.450, 199.875 351, 198.500 351 C 196.944 351, 196 350.433, 196 349.500 C 196 348.500, 197 348, 199 348 C 200.650 348, 202 347.550, 202 347 C 202 346.450, 200.200 346, 198 346 C 194 346, 194 346, 194 352.500 M 206.105 347.373 C 204.504 349.303, 205.737 351.812, 209.154 353.580 C 212.617 355.370, 212.039 357, 207.941 357 C 206.323 357, 205 357.420, 205 357.933 C 205 359.486, 208.572 360.113, 211.368 359.050 C 214.994 357.671, 214.820 354.374, 211.006 352.203 C 207.138 350.002, 207.135 348, 211 348 C 212.650 348, 214 347.550, 214 347 C 214 345.490, 207.410 345.801, 206.105 347.373 M 217 347 C 217 347.550, 217.900 348, 219 348 C 220.758 348, 221 348.667, 221 353.500 C 221 356.525, 221.450 359, 222 359 C 222.550 359, 223 356.525, 223 353.500 C 223 348.667, 223.242 348, 225 348 C 226.100 348, 227 347.550, 227 347 C 227 346.450, 224.750 346, 222 346 C 219.250 346, 217 346.450, 217 347 M 232.109 350.250 C 229.307 356.794, 228.750 359, 229.897 359 C 230.465 359, 231.411 358.100, 232 357 C 232.589 355.900, 233.924 355, 234.968 355 C 236.011 355, 237.151 355.900, 237.500 357 C 237.849 358.100, 238.773 359, 239.553 359 C 240.955 359, 240.854 358.638, 236.287 347.250 C 235.364 344.947, 233.943 345.967, 232.109 350.250 M 244 351.477 C 244 356.239, 244.332 357.171, 246.541 358.619 C 250.563 361.254, 253.685 359.282, 254.542 353.565 C 255.259 348.788, 254.721 346, 253.084 346 C 252.545 346, 251.969 348.363, 251.802 351.250 C 251.523 356.103, 251.311 356.500, 249 356.500 C 246.689 356.500, 246.477 356.103, 246.198 351.250 C 245.797 344.296, 244 344.481, 244 351.477 M 259 352.500 C 259 357.611, 259.321 359, 260.500 359 C 261.433 359, 262 358.056, 262 356.500 C 262 355.125, 262.378 354, 262.839 354 C 263.301 354, 264.192 355.125, 264.818 356.500 C 265.445 357.875, 266.653 359, 267.504 359 C 268.895 359, 268.897 358.702, 267.529 356.057 C 266.571 354.204, 266.376 352.885, 267.004 352.498 C 268.583 351.522, 268.161 347.276, 266.418 346.607 C 265.548 346.273, 263.523 346, 261.918 346 C 259 346, 259 346, 259 352.500 M 275.342 347.667 C 274.980 348.675, 273.861 351.637, 272.856 354.250 C 271.396 358.047, 271.304 359, 272.398 359 C 273.151 359, 274.002 358.100, 274.290 357 C 274.612 355.769, 275.654 355, 277 355 C 278.346 355, 279.388 355.769, 279.710 357 C 279.998 358.100, 280.856 359, 281.617 359 C 283.345 359, 283.414 359.495, 280.718 352.536 C 278.311 346.321, 276.436 344.623, 275.342 347.667 M 286 352.500 C 286 357.490, 286.334 359, 287.440 359 C 288.381 359, 288.987 357.703, 289.190 355.250 C 289.500 351.500, 289.500 351.500, 291.832 355.250 C 295.440 361.053, 297 360.223, 297 352.500 C 297 348.833, 296.564 346, 296 346 C 295.450 346, 294.995 348.137, 294.988 350.750 C 294.976 355.500, 294.976 355.500, 291.870 350.750 C 287.469 344.020, 286 344.458, 286 352.500 M 300 347 C 300 347.550, 300.900 348, 302 348 C 303.758 348, 304 348.667, 304 353.500 C 304 357.722, 304.348 359, 305.500 359 C 306.652 359, 307 357.722, 307 353.500 C 307 348.667, 307.242 348, 309 348 C 310.100 348, 311 347.550, 311 347 C 311 346.450, 308.525 346, 305.500 346 C 302.475 346, 300 346.450, 300 347 M 314 352.500 C 314 359, 314 359, 318 359 C 320.200 359, 322 358.550, 322 358 C 322 357.450, 320.875 357, 319.500 357 C 317.667 357, 317 356.467, 317 355 C 317 353.533, 317.667 353, 319.500 353 C 320.875 353, 322 352.550, 322 352 C 322 351.450, 320.875 351, 319.500 351 C 317.944 351, 317 350.433, 317 349.500 C 317 348.567, 317.944 348, 319.500 348 C 320.875 348, 322 347.550, 322 347 C 322 346.450, 320.200 346, 318 346 C 314 346, 314 346, 314 352.500 M 183 350 C 183 351.506, 183.522 352.046, 184.750 351.810 C 185.713 351.624, 186.500 350.810, 186.500 350 C 186.500 349.190, 185.713 348.376, 184.750 348.190 C 183.522 347.954, 183 348.494, 183 350 M 262 350 C 262 351.506, 262.522 352.046, 263.750 351.810 C 264.712 351.624, 265.500 350.810, 265.500 350 C 265.500 349.190, 264.712 348.376, 263.750 348.190 C 262.522 347.954, 262 348.494, 262 350" stroke="none" fill="#050505" fill-rule="evenodd"/><path d="M 108.437 110.250 C 105.500 113.500, 105.500 113.500, 108.750 110.563 C 110.537 108.948, 112 107.485, 112 107.313 C 112 106.540, 111.175 107.221, 108.437 110.250 M 257.946 143.750 C 254.500 147.500, 254.500 147.500, 258.250 144.054 C 260.313 142.158, 262 140.471, 262 140.304 C 262 139.540, 261.154 140.260, 257.946 143.750 M 175.232 233 C 175.232 234.925, 175.438 235.713, 175.689 234.750 C 175.941 233.787, 175.941 232.213, 175.689 231.250 C 175.438 230.287, 175.232 231.075, 175.232 233 M 192.328 236.500 C 192.333 240.350, 192.513 241.802, 192.730 239.728 C 192.946 237.653, 192.943 234.503, 192.722 232.728 C 192.501 230.952, 192.324 232.650, 192.328 236.500 M 215.232 243 C 215.232 244.925, 215.438 245.713, 215.689 244.750 C 215.941 243.787, 215.941 242.213, 215.689 241.250 C 215.438 240.287, 215.232 241.075, 215.232 243 M 250.232 281 C 250.232 282.925, 250.438 283.712, 250.689 282.750 C 250.941 281.788, 250.941 280.212, 250.689 279.250 C 250.438 278.288, 250.232 279.075, 250.232 281 M 231.417 354.134 C 231.123 354.610, 232.259 355, 233.941 355 C 235.623 355, 237 354.827, 237 354.617 C 237 353.768, 231.915 353.329, 231.417 354.134 M 277 354 C 274.650 354.753, 274.698 354.807, 277.809 354.900 C 279.781 354.960, 280.868 354.596, 280.500 354 C 280.160 353.450, 279.796 353.045, 279.691 353.100 C 279.586 353.155, 278.375 353.560, 277 354" stroke="none" fill="#fafafa" fill-rule="evenodd"/></svg>